<svg id="Welcome_to_Sonovate._We_re_here_to_get_you_paid_when_you_need_it.-0" data-name="Welcome to Sonovate. We’re here to get you paid when you need it.-0" xmlns="http://www.w3.org/2000/svg" width="175.233" height="45.402" viewBox="0 0 175.233 45.402">
  <g id="Сгруппировать_33" data-name="Сгруппировать 33" transform="translate(0 0)">
    <g id="Сгруппировать_32" data-name="Сгруппировать 32">
      <path id="Контур_74" data-name="Контур 74" d="M24.87,10.656H36.3a9.012,9.012,0,0,0-1.532-3.792,9.7,9.7,0,0,0-7.961-4.087A9.8,9.8,0,0,0,21.858,4.1a12.224,12.224,0,0,1,.962,1.2A11.714,11.714,0,0,1,24.87,10.656ZM2.983,34.745a9.018,9.018,0,0,0,1.532,3.793,9.7,9.7,0,0,0,7.961,4.087A9.8,9.8,0,0,0,17.427,41.3a12.187,12.187,0,0,1-.966-1.209,11.716,11.716,0,0,1-2.05-5.347ZM21.856,41.3a9.852,9.852,0,0,0,4.949,1.326,9.449,9.449,0,0,0,9.6-9.268c0-5.851-4.889-7.772-10.549-10-5.4-2.123-11.526-4.529-11.526-11.316a11.76,11.76,0,0,1,3.1-7.939,9.85,9.85,0,0,0-4.954-1.329,9.449,9.449,0,0,0-9.6,9.268c0,4.919,4.511,6.692,9.734,8.744,5.785,2.273,12.341,4.849,12.341,12.568A11.72,11.72,0,0,1,21.856,41.3Zm4.949,4.1a12.776,12.776,0,0,1-7.163-2.182A12.694,12.694,0,0,1,12.476,45.4h0A12.6,12.6,0,0,1,2.132,40.092,11.7,11.7,0,0,1,0,33.357V31.969H17.205v1.388a9,9,0,0,0,1.639,5.181,9.382,9.382,0,0,0,.8.988,9.023,9.023,0,0,0,2.435-6.169c0-5.851-4.889-7.772-10.549-10C6.123,21.238,0,18.832,0,12.045A12.28,12.28,0,0,1,12.476,0a12.773,12.773,0,0,1,7.169,2.186,12.764,12.764,0,0,1,17.5,3.123,11.694,11.694,0,0,1,2.132,6.735v1.388H22.075V12.045a8.994,8.994,0,0,0-1.639-5.181,9.381,9.381,0,0,0-.793-.985,9.051,9.051,0,0,0-2.438,6.165c0,4.919,4.511,6.692,9.734,8.744,5.785,2.273,12.341,4.849,12.341,12.568A12.28,12.28,0,0,1,26.805,45.4Z" fill-rule="evenodd"/>
      <g id="Сгруппировать_31" data-name="Сгруппировать 31" transform="translate(49.793 13.329)">
        <path id="Контур_75" data-name="Контур 75" d="M58.964,26.452c0,2.938-2.567,4.3-5.684,4.3-3.056,0-5.806-1.787-5.806-5.117h3.239c0,1.847,1.161,2.514,2.75,2.514,1.314,0,2.323-.424,2.323-1.636,0-1.332-1.437-1.423-4.432-2.574-1.986-.757-3.392-1.484-3.392-3.937,0-2.665,2.445-4.088,5.348-4.088,3.026,0,5.44,2.029,5.44,4.784H55.511a1.989,1.989,0,0,0-2.292-2.18c-1.131,0-2.047.545-2.047,1.544,0,1.211,1.314,1.363,3.912,2.362,1.986.757,3.881,1.453,3.881,4.027" transform="translate(-47.474 -12.552)" fill-rule="evenodd"/>
        <path id="Контур_76" data-name="Контур 76" d="M72.581,23.873a4.31,4.31,0,1,0-8.611,0,4.31,4.31,0,1,0,8.611,0Zm-12.037,0a7.737,7.737,0,1,1,7.7,7.433,7.386,7.386,0,0,1-7.7-7.433Z" transform="translate(-46.835 -12.526)" fill-rule="evenodd"/>
        <path id="Контур_77" data-name="Контур 77" d="M78.1,16.8h3.426v1.972A5.262,5.262,0,0,1,86.3,16.44a5.046,5.046,0,0,1,4.4,1.911,6.908,6.908,0,0,1,.943,4.187v8.4H88.217V23.631c0-2.427-.723-4.278-3.174-4.278-2.389,0-3.52,1.851-3.52,4.278v7.312H78.1V16.8" transform="translate(-45.977 -12.526)" fill-rule="evenodd"/>
        <path id="Контур_78" data-name="Контур 78" d="M105.964,23.873a4.31,4.31,0,1,0-8.613,0,4.31,4.31,0,1,0,8.613,0Zm-12.038,0a7.738,7.738,0,1,1,7.7,7.433,7.386,7.386,0,0,1-7.7-7.433Z" transform="translate(-45.204 -12.526)" fill-rule="evenodd"/>
        <path id="Контур_79" data-name="Контур 79" d="M113.213,16.787l4.024,9.406,4.085-9.406H125l-6.63,14.138h-2.295l-6.536-14.138h3.676" transform="translate(-44.441 -12.509)" fill-rule="evenodd"/>
        <path id="Контур_80" data-name="Контур 80" d="M137.184,23.873a4.31,4.31,0,1,0-8.613,0,4.31,4.31,0,1,0,8.613,0Zm3.425-7.069V30.942h-3.425V29.031a5.565,5.565,0,0,1-4.528,2.276,7.434,7.434,0,1,1,0-14.866,5.565,5.565,0,0,1,4.528,2.276V16.8Z" transform="translate(-43.679 -12.526)" fill-rule="evenodd"/>
        <path id="Контур_81" data-name="Контур 81" d="M152.322,31.125a17.207,17.207,0,0,1-2.548.182c-1.665,0-4.745-.212-4.745-4.976V19.747h-2.481V16.986h2.481V12.708h3.425v4.278h3.364v2.761h-3.364v5.825c0,2.457.788,2.761,2.139,2.761a13.524,13.524,0,0,0,1.729-.121v2.913" transform="translate(-42.828 -12.708)" fill-rule="evenodd"/>
        <path id="Контур_82" data-name="Контур 82" d="M157.1,22.417h7.293a3.325,3.325,0,0,0-3.553-3.489C158.734,18.928,157.1,20.111,157.1,22.417Zm0,2.458c.159,2.033,1.069,3.671,3.929,3.671,1.949,0,2.7-.85,3.111-1.85H167.6c-.409,2.427-2.829,4.611-6.569,4.611-4.934,0-7.321-3.277-7.321-7.433,0-4.248,2.607-7.433,7.227-7.433a6.5,6.5,0,0,1,6.789,6.372,11.107,11.107,0,0,1-.159,2.063Z" transform="translate(-42.283 -12.526)" fill-rule="evenodd"/>
      </g>
    </g>
  </g>
</svg>
