<svg id="Wipro_logo" xmlns="http://www.w3.org/2000/svg" width="144.081" height="115.201" viewBox="0 0 144.081 115.201">
  <g id="Сгруппировать_34" data-name="Сгруппировать 34" transform="translate(0 48.292)">
    <path id="Контур_83" data-name="Контур 83" d="M338,199.852a9.525,9.525,0,1,0,9.252,9.52,9.391,9.391,0,0,0-9.252-9.52m0,14.548a5.034,5.034,0,1,1,4.758-5.028A4.9,4.9,0,0,1,338,214.4" transform="translate(-253.95 -199.852)"/>
    <path id="Контур_84" data-name="Контур 84" d="M240.28,207.471l5.7,10.957a.961.961,0,0,0,.772.468h.5a.773.773,0,0,0,.691-.5l5.567-17.258a.545.545,0,0,0-.549-.756h-3.406a.776.776,0,0,0-.691.5l-2.814,8.722-4.832-9.285a.962.962,0,0,0-.773-.467h-.345a.961.961,0,0,0-.774.467l-4.831,9.285-2.814-8.722a.778.778,0,0,0-.691-.5h-3.408a.545.545,0,0,0-.549.756l5.567,17.258a.776.776,0,0,0,.691.5h.507a.962.962,0,0,0,.772-.468Z" transform="translate(-227.006 -199.852)"/>
    <path id="Контур_85" data-name="Контур 85" d="M272.433,217.757a.794.794,0,0,1-.793.794H268.2a.794.794,0,0,1-.793-.794v-16.4a.8.8,0,0,1,.793-.794h3.437a.8.8,0,0,1,.793.794Z" transform="translate(-237.706 -200.04)"/>
    <path id="Контур_86" data-name="Контур 86" d="M290.069,199.852a8.331,8.331,0,0,0-6.079,2.694v0l-.612-1.668a.815.815,0,0,0-.71-.5H281.08a.793.793,0,0,0-.792.794v25.921a.792.792,0,0,0,.792.794h3.437a.793.793,0,0,0,.793-.794V218.1a14.421,14.421,0,0,0,4.758.792c4.819,0,8.724-4.263,8.724-9.523s-3.9-9.52-8.724-9.52m-.934,14.548a7.444,7.444,0,0,1-3.824-1.017v-6.8a4.507,4.507,0,0,1,3.824-2.231,5.046,5.046,0,0,1,0,10.053" transform="translate(-241.117 -199.852)"/>
    <path id="Контур_87" data-name="Контур 87" d="M319.494,199.852a6.9,6.9,0,0,0-5.223,2.693l-.611-1.667a.817.817,0,0,0-.711-.5h-1.585a.8.8,0,0,0-.795.795v16.4a.8.8,0,0,0,.795.794H314.8a.794.794,0,0,0,.792-.794V206.092a4.4,4.4,0,0,1,5.085-1.4.783.783,0,0,0,1.064-.395l1.183-2.676c.276-.629-.124-1.769-3.43-1.769" transform="translate(-249.137 -199.852)"/>
  </g>
  <path id="Контур_88" data-name="Контур 88" d="M317.649,245.4a3.965,3.965,0,1,0,3.965-3.968,3.965,3.965,0,0,0-3.965,3.968m-13.5-2.8a3.695,3.695,0,1,0,3.572-2.745,3.7,3.7,0,0,0-3.572,2.745m30.259-3.1a4.224,4.224,0,1,0,1.1-.145,4.232,4.232,0,0,0-1.1.145m-42.6-3.04a3.436,3.436,0,1,0,4.693-1.26,3.433,3.433,0,0,0-4.693,1.26m54.395-2.116a4.487,4.487,0,1,0,2.243-.6,4.5,4.5,0,0,0-2.243.6m-27.238-4.02a2.644,2.644,0,1,0,2.644-2.644,2.644,2.644,0,0,0-2.644,2.644m-9.642-1.945a2.377,2.377,0,1,0,2.3-1.765,2.379,2.379,0,0,0-2.3,1.765m-27.888-.988a3.169,3.169,0,1,0,2.244-.931,3.171,3.171,0,0,0-2.244.931m49.413-1.174a2.9,2.9,0,1,0,.754-.1,2.846,2.846,0,0,0-.754.1m25.359.135a4.754,4.754,0,1,0,3.365-1.4,4.761,4.761,0,0,0-3.365,1.4m-55.722-2.287A2.112,2.112,0,1,0,302.326,223a2.118,2.118,0,0,0-1.834,1.059m38.843-1.632a3.17,3.17,0,1,0,1.583-.426,3.177,3.177,0,0,0-1.583.426m-46.3-4.768a1.851,1.851,0,1,0,1.307-.541,1.849,1.849,0,0,0-1.307.541m26.731.891a1.85,1.85,0,1,0,1.851-1.851,1.85,1.85,0,0,0-1.851,1.851m-6.752-1.375a1.718,1.718,0,1,0,2.1-1.215,1.693,1.693,0,0,0-.444-.059,1.721,1.721,0,0,0-1.66,1.274m15.037-1.441a1.982,1.982,0,1,0,.513-.067,1.985,1.985,0,0,0-.513.067m18.445.885a3.438,3.438,0,1,0,2.431-1.007,3.444,3.444,0,0,0-2.431,1.007m-72.778-.64a2.9,2.9,0,1,0,1.45-.39,2.878,2.878,0,0,0-1.45.39m33.117-1.849a1.588,1.588,0,1,0,1.375-.793,1.588,1.588,0,0,0-1.375.793m56.708,1.827a5.283,5.283,0,1,0,4.586-2.646,5.292,5.292,0,0,0-4.586,2.646m-29.56-2.806a2.11,2.11,0,1,0,1.057-.285,2.116,2.116,0,0,0-1.057.285m-45.766-3.777a1.566,1.566,0,0,0-.789.213,1.583,1.583,0,1,0,.791-.213h0Zm13.415.243a1.454,1.454,0,1,0,1.028-.426,1.454,1.454,0,0,0-1.028.426m37.294-.57a2.374,2.374,0,1,0,1.682-.7,2.38,2.38,0,0,0-1.682.7m-18.5.379a1.19,1.19,0,1,0,1.189-1.19,1.189,1.189,0,0,0-1.189,1.19m-4.415-.894a1.057,1.057,0,1,0,1.022-.784,1.06,1.06,0,0,0-1.022.784m9.85-.972a1.318,1.318,0,1,0,.342-.046,1.324,1.324,0,0,0-.342.046m26.005,1.652a3.7,3.7,0,1,0,3.211-1.851,3.709,3.709,0,0,0-3.211,1.851m-39.9-2.653a.923.923,0,1,0,.8-.463.926.926,0,0,0-.8.463m17.787-.736a1.452,1.452,0,1,0,.725-.2,1.436,1.436,0,0,0-.725.2m-32.007-1.89a1.319,1.319,0,1,0,.66-.178,1.3,1.3,0,0,0-.66.178m10.8-.3a.8.8,0,1,0,.56-.231.794.794,0,0,0-.56.231m24.488-.475a1.585,1.585,0,1,0,1.123-.466,1.587,1.587,0,0,0-1.123.466m9.558.7a2.64,2.64,0,1,0,2.29-1.322,2.644,2.644,0,0,0-2.29,1.322m25.286.3a5.808,5.808,0,1,0,5.613-4.314,5.819,5.819,0,0,0-5.613,4.314m-32.383-4.4a1.721,1.721,0,1,0,1.49-.859,1.721,1.721,0,0,0-1.49.859m19.617.973a3.96,3.96,0,1,0,3.827-2.942,3.965,3.965,0,0,0-3.827,2.942m-10.344-2.774a2.908,2.908,0,1,0,3.562-2.056,2.879,2.879,0,0,0-.755-.1,2.911,2.911,0,0,0-2.807,2.156m-7.788-2.088a1.851,1.851,0,1,0,2.266-1.307,1.829,1.829,0,0,0-.48-.064,1.851,1.851,0,0,0-1.785,1.371m.385-4.106a2.021,2.021,0,1,0,2.021-2.021,2.023,2.023,0,0,0-2.021,2.021m8.038,0a3.1,3.1,0,1,0,3.1-3.1,3.1,3.1,0,0,0-3.1,3.1m10.322,0a4.546,4.546,0,1,0,4.546-4.548,4.548,4.548,0,0,0-4.546,4.548m13.262,0a6.352,6.352,0,1,0,6.354-6.354,6.354,6.354,0,0,0-6.354,6.354m-30.7-6.372a1.848,1.848,0,1,0,.481-.064,1.852,1.852,0,0,0-.481.064m8.536-3.383a2.9,2.9,0,1,0,.756-.1,2.91,2.91,0,0,0-.756.1m-10.7-.584a1.717,1.717,0,1,0,.858-.231,1.7,1.7,0,0,0-.858.231m-27.577-2.651a.792.792,0,1,0,.56-.233.793.793,0,0,0-.56.233m49.366-.832a3.954,3.954,0,1,0,1.029-.138,3.964,3.964,0,0,0-1.029.138m-24.878.188a1.587,1.587,0,1,0,1.123-.465,1.587,1.587,0,0,0-1.123.465m-35.773-.338a1.321,1.321,0,1,0,1.146-.662,1.321,1.321,0,0,0-1.146.662m46.3-1.733a2.639,2.639,0,1,0,1.318-.355,2.618,2.618,0,0,0-1.318.355M312.3,175.7a.927.927,0,1,0,.461-.123.927.927,0,0,0-.461.123m16.917.016a1.455,1.455,0,1,0,1.26-.728,1.454,1.454,0,0,0-1.26.728m-62.078.779a2.762,2.762,0,1,0,2.676-2.059,2.776,2.776,0,0,0-2.676,2.059m49.617-2.8a1.052,1.052,0,1,0,.274-.037,1.058,1.058,0,0,0-.274.037m8.164.648a1.322,1.322,0,1,0,1.619-.934,1.294,1.294,0,0,0-.343-.046,1.325,1.325,0,0,0-1.277.98m-4.5-.247a1.19,1.19,0,1,0,1.189-1.189,1.189,1.189,0,0,0-1.189,1.189m51.565-1.85a5.8,5.8,0,1,0,1.509-.2,5.818,5.818,0,0,0-1.509.2m-70.361-.4a1.456,1.456,0,1,0,1.028-.425,1.457,1.457,0,0,0-1.028.425m-14.785-.079a1.587,1.587,0,1,0,1.377-.794,1.587,1.587,0,0,0-1.377.794m52.079-.659a2.377,2.377,0,1,0,1.681-.7,2.38,2.38,0,0,0-1.681.7m14.3-1.856a3.7,3.7,0,1,0,1.847-.5,3.706,3.706,0,0,0-1.847.5m-45.808-2.029a1.587,1.587,0,1,0,.792-.212,1.587,1.587,0,0,0-.792.212m25.8.257a2.115,2.115,0,1,0,2.887-.774,2.11,2.11,0,0,0-2.887.774m-18.981-3.24a1.716,1.716,0,1,0,.445-.059,1.722,1.722,0,0,0-.445.059m12.42,1.116a1.98,1.98,0,1,0,1.914-1.47,1.986,1.986,0,0,0-1.914,1.47m-6.883-.387a1.85,1.85,0,1,0,1.851-1.85,1.851,1.851,0,0,0-1.851,1.85m-26.731-1.727a1.853,1.853,0,1,0,1.307-.541,1.852,1.852,0,0,0-1.307.541m-20.488.22a2.9,2.9,0,1,0,2.521-1.456,2.911,2.911,0,0,0-2.521,1.456m73.949-1.425a3.435,3.435,0,1,0,2.431-1.008,3.442,3.442,0,0,0-2.431,1.008m18.983-1.7a5.285,5.285,0,1,0,2.641-.709,5.291,5.291,0,0,0-2.641.709m-64.21-3.767a2.113,2.113,0,1,0,1.057-.284,2.117,2.117,0,0,0-1.057.284m36.907.184a3.167,3.167,0,1,0,2.751-1.588,3.176,3.176,0,0,0-2.751,1.588m-27.162-4.525a2.378,2.378,0,1,0,.615-.081,2.381,2.381,0,0,0-.615.081m17.788,1.516A2.9,2.9,0,1,0,331.6,151.6a2.908,2.908,0,0,0-2.805,2.157m-47.357-2.1a3.17,3.17,0,1,0,2.244-.931,3.173,3.173,0,0,0-2.244.931m37.529,1.552a2.644,2.644,0,1,0,2.644-2.645,2.645,2.645,0,0,0-2.644,2.645m37.243-2.759a4.757,4.757,0,1,0,3.367-1.394,4.764,4.764,0,0,0-3.367,1.394m-63.143-8.073a3.436,3.436,0,1,0,1.715-.46,3.441,3.441,0,0,0-1.715.46m51.492.67a4.5,4.5,0,1,0,3.9-2.246,4.5,4.5,0,0,0-3.9,2.246m-37.8-6.646a3.7,3.7,0,1,0,.959-.127,3.646,3.646,0,0,0-.959.127m24.652,2.449a4.221,4.221,0,1,0,4.081-3.136,4.232,4.232,0,0,0-4.081,3.136m-13.771-.719a3.965,3.965,0,1,0,3.965-3.968,3.967,3.967,0,0,0-3.965,3.968" transform="translate(-237.61 -134.163)"/>
</svg>
