<svg id="MoneySuperMarket_-_Get_Money_Calm-23" data-name="MoneySuperMarket - Get Money Calm-23" xmlns="http://www.w3.org/2000/svg" width="163.389" height="65.803" viewBox="0 0 163.389 65.803">
  <g id="Сгруппировать_28" data-name="Сгруппировать 28" transform="translate(69.594 1.162)">
    <path id="m" d="M118.8,20.219l1.64-17.282a.906.906,0,0,1,1-.937H122.9a1.076,1.076,0,0,1,1.113.762l5.975,14.353,5.975-14.353A1.146,1.146,0,0,1,137.132,2h1.406a.925.925,0,0,1,1.054.937l1.64,17.282a.854.854,0,0,1-.937,1.054h-.879a.925.925,0,0,1-1.054-.937L137.191,6.452,131.45,20.278a1.146,1.146,0,0,1-1.172.762h-.469a1.034,1.034,0,0,1-1.113-.762L122.955,6.452l-1.23,13.884a.925.925,0,0,1-1.054.937h-.937A.876.876,0,0,1,118.8,20.219Z" transform="translate(-118.791 -2)"/>
    <path id="Контур_61" data-name="Контур 61" d="M161.9,18.006a7.294,7.294,0,1,1,7.264,7.206A7.213,7.213,0,0,1,161.9,18.006Zm11.775,0a4.489,4.489,0,1,0-8.963,0,4.486,4.486,0,1,0,8.963,0Z" transform="translate(-136.646 -5.645)"/>
    <path id="Контур_62" data-name="Контур 62" d="M192.2,23.922V12.089a.923.923,0,0,1,1-1h.82a.9.9,0,0,1,1,1v1.7c.586-1.933,2.343-2.988,4.569-2.988,3.046,0,5.272,1.992,5.272,6.327v6.8a.923.923,0,0,1-1,1h-.82a.9.9,0,0,1-1-1v-6.8c0-2.812-1.289-3.866-2.753-3.866-1.406,0-4.276.937-4.276,5.155v5.507a.9.9,0,0,1-1,1h-.82A.9.9,0,0,1,192.2,23.922Z" transform="translate(-149.195 -5.645)"/>
    <path id="e" d="M218.9,18.064a7.231,7.231,0,0,1,7.44-7.264,6.7,6.7,0,0,1,7.03,6.444.833.833,0,0,1-.937,1H221.771c-.059,2.578,2.05,4.452,5.038,4.452a6.313,6.313,0,0,0,3.749-1.172,1.012,1.012,0,0,1,1.406.117l.176.234a.971.971,0,0,1-.176,1.582,8.014,8.014,0,0,1-5.155,1.7C221.829,25.211,218.9,21.989,218.9,18.064Zm11.6-1.875A3.96,3.96,0,0,0,226.34,13.2a4.5,4.5,0,0,0-4.452,2.988Z" transform="translate(-160.254 -5.645)"/>
    <path id="Контур_63" data-name="Контур 63" d="M248.984,30.063l2.109-5.507L245.821,12.43c-.293-.7,0-1.172.762-1.172H247.7a1.034,1.034,0,0,1,1.113.762l3.808,9.315,3.515-9.315a1.147,1.147,0,0,1,1.172-.82h1.113c.762,0,1.054.469.762,1.172L251.5,30.415a1.146,1.146,0,0,1-1.172.762h-.644C248.984,31.235,248.692,30.766,248.984,30.063Z" transform="translate(-171.358 -5.81)"/>
  </g>
  <g id="Сгруппировать_29" data-name="Сгруппировать 29" transform="translate(68.791 21.842)">
    <path id="Контур_64" data-name="Контур 64" d="M117.526,53.234c-.293-.586.059-1.054.644-1.23l.82-.176a.989.989,0,0,1,1.23.644,4.686,4.686,0,0,0,4.1,2.109c2.46,0,3.984-1.23,3.984-2.871,0-1.465-1.23-2.343-2.753-2.929l-2.871-.937c-3.632-1.23-4.511-3.4-4.511-5.155,0-3.339,2.929-5.39,6.268-5.39,3.046,0,5.155,1.465,6.034,3.632a.873.873,0,0,1-.644,1.23l-.7.234a1,1,0,0,1-1.289-.644,3.467,3.467,0,0,0-3.4-1.875c-1.816,0-3.339,1-3.339,2.695,0,.82.234,1.816,2.46,2.695l2.871,1.054c3.222,1,4.745,3.163,4.745,5.214,0,3.456-2.753,5.624-6.8,5.624C120.923,57.159,118.521,55.519,117.526,53.234Z" transform="translate(-117.42 -37.3)"/>
    <path id="Контур_65" data-name="Контур 65" d="M145.9,54.891V48.1a.9.9,0,0,1,1-1h.82a.9.9,0,0,1,1,1v6.8c0,2.812,1.289,3.866,2.753,3.866,1.406,0,4.276-1,4.276-5.155V48.1a.9.9,0,0,1,1-1h.82a.9.9,0,0,1,1,1V59.929a.923.923,0,0,1-1,1h-.82a.9.9,0,0,1-1-1v-1.7c-.586,1.933-2.343,2.988-4.569,2.988C148.068,61.218,145.9,59.226,145.9,54.891Z" transform="translate(-129.216 -41.359)"/>
    <path id="Контур_66" data-name="Контур 66" d="M174.6,65.874V47.889a.923.923,0,0,1,1-1h.82a.9.9,0,0,1,1,1V49.06a5.8,5.8,0,0,1,4.979-2.46c4.1,0,6.854,3.222,6.854,7.206s-2.753,7.206-6.854,7.206a5.863,5.863,0,0,1-4.979-2.46v7.323a.9.9,0,0,1-1,1h-.82A.9.9,0,0,1,174.6,65.874Zm11.775-12.068c0-2.578-1.582-4.745-4.394-4.745a4.749,4.749,0,0,0,0,9.49C184.793,58.551,186.375,56.383,186.375,53.806Z" transform="translate(-141.103 -41.152)"/>
    <path id="Контур_67" data-name="Контур 67" d="M203.1,53.864a7.231,7.231,0,0,1,7.44-7.264,6.7,6.7,0,0,1,7.03,6.444.833.833,0,0,1-.937,1H205.971c-.059,2.578,2.05,4.452,5.038,4.452a6.313,6.313,0,0,0,3.749-1.172,1.012,1.012,0,0,1,1.406.117l.176.234a.971.971,0,0,1-.176,1.582,8.014,8.014,0,0,1-5.155,1.7C206.088,61.011,203.1,57.789,203.1,53.864Zm11.658-1.875A3.96,3.96,0,0,0,210.6,49a4.5,4.5,0,0,0-4.452,2.988Z" transform="translate(-152.907 -41.152)"/>
    <path id="r" d="M232.9,59.722V47.889a.923.923,0,0,1,1-1h.82a.9.9,0,0,1,1,1V50a3.881,3.881,0,0,1,3.691-3.4h.586c.586.059.644.527.644,1.113v.82c0,.7-.293.937-.762.879a3.1,3.1,0,0,0-.762-.059c-1,0-3.456.469-3.456,6.151v4.218a.9.9,0,0,1-1,1h-.82A.908.908,0,0,1,232.9,59.722Z" transform="translate(-165.25 -41.152)"/>
  </g>
  <g id="Сгруппировать_30" data-name="Сгруппировать 30" transform="translate(69.36 44.161)">
    <path id="Контур_68" data-name="Контур 68" d="M118.4,94.719l1.64-17.282a.906.906,0,0,1,1-.937H122.5a1.076,1.076,0,0,1,1.113.762l5.975,14.353,5.975-14.353a1.146,1.146,0,0,1,1.172-.762h1.406a.925.925,0,0,1,1.054.937l1.64,17.282a.854.854,0,0,1-.937,1.054h-.937a.925.925,0,0,1-1.054-.937l-1.172-13.884-5.741,13.825a1.146,1.146,0,0,1-1.172.762h-.469a1.034,1.034,0,0,1-1.113-.762L122.5,80.952l-1.23,13.884a.925.925,0,0,1-1.054.937h-.937A.863.863,0,0,1,118.4,94.719Z" transform="translate(-118.39 -75.856)"/>
    <path id="Контур_69" data-name="Контур 69" d="M161.6,92.506c0-3.984,2.753-7.206,6.854-7.206a5.763,5.763,0,0,1,4.921,2.46V86.589a.923.923,0,0,1,1-1h.82a.9.9,0,0,1,1,1V98.422a.9.9,0,0,1-1,1h-.82a.9.9,0,0,1-1-1V97.251a5.763,5.763,0,0,1-4.921,2.46C164.295,99.711,161.6,96.489,161.6,92.506Zm11.775,0a4.478,4.478,0,0,0-4.569-4.745c-2.753,0-4.394,2.168-4.394,4.745s1.582,4.745,4.394,4.745A4.445,4.445,0,0,0,173.375,92.506Z" transform="translate(-136.287 -79.5)"/>
    <path id="Контур_70" data-name="Контур 70" d="M193.6,98.464V86.689a.923.923,0,0,1,1-1h.82a.9.9,0,0,1,1,1V88.8a3.882,3.882,0,0,1,3.691-3.4h.586c.586.059.644.527.644,1.113v.82c0,.7-.293.937-.762.879a3.1,3.1,0,0,0-.762-.059c-1,0-3.456.469-3.456,6.151v4.276a.9.9,0,0,1-1,1h-.82A1.089,1.089,0,0,1,193.6,98.464Z" transform="translate(-149.541 -79.542)"/>
    <path id="Контур_71" data-name="Контур 71" d="M216.507,92.682l-2.695-4.394v6.034a.9.9,0,0,1-1,1H212a.9.9,0,0,1-1-1V76.4a.923.923,0,0,1,1-1h.82a.9.9,0,0,1,1,1v10.9l4.218-5.214a1.4,1.4,0,0,1,1.23-.586h1.054c.879,0,1.113.527.586,1.23l-4.218,5.1,2.285,3.515c.82,1.113,1.172,1.816,2.4,1.816a2.767,2.767,0,0,0,1.23-.234.63.63,0,0,1,.82.234l.469.879c.117.351,0,.82-.7,1.113a4.851,4.851,0,0,1-2.168.469C218.264,95.611,217.327,93.912,216.507,92.682Z" transform="translate(-156.747 -75.4)"/>
    <path id="Контур_72" data-name="Контур 72" d="M233.6,92.564a7.231,7.231,0,0,1,7.44-7.264,6.7,6.7,0,0,1,7.03,6.444.833.833,0,0,1-.937,1H236.471c-.059,2.578,2.05,4.452,5.038,4.452a6.313,6.313,0,0,0,3.749-1.172,1.012,1.012,0,0,1,1.406.117l.176.234a.971.971,0,0,1-.176,1.582,8.014,8.014,0,0,1-5.155,1.7C236.588,99.711,233.6,96.489,233.6,92.564Zm11.658-1.816A3.96,3.96,0,0,0,241.1,87.76a4.5,4.5,0,0,0-4.452,2.988Z" transform="translate(-166.108 -79.5)"/>
    <path id="Контур_73" data-name="Контур 73" d="M262.826,92.457V85.251h-1.7c-.352,0-.527-.234-.527-.586V83.611a.466.466,0,0,1,.527-.527h1.757l.469-3.163a.848.848,0,0,1,.879-.82h.586a.786.786,0,0,1,.82.879v3.1h3.749a.466.466,0,0,1,.527.527v1.054c0,.352-.176.586-.527.586h-3.749v7.381c0,1.465.7,2.05,1.582,2.05a1.463,1.463,0,0,0,1.64-1.465,2.018,2.018,0,0,0-.059-.527c-.059-.41.117-.644.469-.644h1.289c.352,0,.586.117.644.469a4.755,4.755,0,0,1,.117,1c0,2.05-1.465,3.574-4.1,3.574C264.994,97.143,262.826,96.03,262.826,92.457Z" transform="translate(-177.291 -76.932)"/>
  </g>
  <g id="Сгруппировать_27" data-name="Сгруппировать 27">
    <path id="Контур_58" data-name="Контур 58" d="M57.232,17.581A31.708,31.708,0,1,1,3.1,50.622C-6.037,35.683,7.261,21.506,13.647,7.037S48.093,2.643,57.232,17.581Z" transform="translate(0.007 -0.016)" opacity="0.3"/>
    <path id="Контур_59" data-name="Контур 59" d="M61.1,33A26.144,26.144,0,0,1,10.079,44.422C6.916,30.3,21.034,22.8,29.88,13.2,38.668,3.649,57.941,18.939,61.1,33Z" transform="translate(-3.983 -4.244)" opacity="0.55"/>
    <path id="Контур_60" data-name="Контур 60" d="M57.076,31.792a20.166,20.166,0,0,1-36.5,17.165C15.834,38.88,25.207,30.8,30.245,22.126S52.331,21.716,57.076,31.792Z" transform="translate(-7.98 -7.665)"/>
  </g>
</svg>
