<svg id="COG-Logo-White" xmlns="http://www.w3.org/2000/svg" width="210.98" height="45.28" viewBox="0 0 210.98 45.28">
  <path id="Контур_49" data-name="Контур 49" d="M741.6,76.491l12.655-12.375H741.781V58.3H763.1v5.915L750.449,76.541h12.9v5.833H741.6Z" transform="translate(-619.402 -48.694)"/>
  <rect id="Прямоугольник_178" data-name="Прямоугольник 178" width="6.591" height="5.981" transform="translate(113.201 1.681)"/>
  <rect id="Прямоугольник_179" data-name="Прямоугольник 179" width="6.591" height="24.074" transform="translate(113.102 9.672)"/>
  <path id="Контур_50" data-name="Контур 50" d="M202.316,68.324a10.593,10.593,0,1,1-.016.082A.149.149,0,0,0,202.316,68.324Zm18.537,0a6.187,6.187,0,0,0-6.064-6.262,6.267,6.267,0,0,0,0,12.523,6.187,6.187,0,0,0,6.064-6.261Z" transform="translate(-168.966 -46.689)"/>
  <path id="Контур_51" data-name="Контур 51" d="M534.3,55.878h6.542v2.7a8.275,8.275,0,0,1,6.641-3.18c5.685,0,9.1,3.658,9.1,9.87V79.952H549.9V66.143c0-3.23-1.5-5.108-4.432-5.108-2.5,0-4.581,1.73-4.581,5.767V79.952H534.3Z" transform="translate(-446.26 -46.271)"/>
  <path id="Контур_52" data-name="Контур 52" d="M875.9,67.823c0-8.519,6.261-12.523,11.7-12.523a9.632,9.632,0,0,1,7.168,2.834v-2.34h6.591V79.868h-6.591v-2.7a9.362,9.362,0,0,1-7.267,3.18C882.392,80.33,875.9,76.292,875.9,67.823Zm19.048-.049a6.208,6.208,0,0,0-6.162-6.443,6.475,6.475,0,1,0,6.162,6.443Z" transform="translate(-731.573 -46.188)"/>
  <path id="Контур_53" data-name="Контур 53" d="M1046.516,55.878h6.542v2.7a8.274,8.274,0,0,1,6.64-3.18c5.685,0,9.1,3.658,9.1,9.87V79.952h-6.69V66.143c0-3.23-1.483-5.108-4.432-5.108-2.5,0-4.581,1.73-4.581,5.767V79.952H1046.5Z" transform="translate(-874.062 -46.271)"/>
  <path id="Контур_54" data-name="Контур 54" d="M741.6,82.357V76.491l12.655-12.375H741.781V58.3H763.1v5.915L750.449,76.541" transform="translate(-619.402 -48.694)"/>
  <path id="Контур_55" data-name="Контур 55" d="M26.315,21.421l-.082.2a9.942,9.942,0,0,1-9.195,6.031A10.309,10.309,0,0,1,6.657,17.17,10.312,10.312,0,0,1,17.186,6.608a9.47,9.47,0,0,1,8.783,5.421l.1.2,5.866-3.757-.1-.165A16.758,16.758,0,0,0,17.186,0,16.811,16.811,0,0,0,0,17.186c0,9.952,7.217,17.17,17.17,17.17a16.938,16.938,0,0,0,15.159-9.524l.1-.181Z"/>
  <path id="Контур_56" data-name="Контур 56" d="M363.8,67.823c0-8.519,6.262-12.523,11.7-12.523a9.413,9.413,0,0,1,7.168,3.081V55.794h6.591v23.4c0,6.789-4.284,12.276-12.424,12.276-6.113,0-10.6-3.18-12.523-6.937l5.817-3.279a7.053,7.053,0,0,0,6.69,4.086,5.733,5.733,0,0,0,5.817-5.915V77.166a9.362,9.362,0,0,1-7.267,3.18C370.292,80.33,363.8,76.292,363.8,67.823Zm19.065-.049a6.208,6.208,0,0,0-6.163-6.443,6.475,6.475,0,1,0,6.163,6.443Z" transform="translate(-303.854 -46.188)"/>
  <path id="Контур_57" data-name="Контур 57" d="M1203.225,23.958V18.042h-4.531V10.1H1192.1v7.942H1188v5.915h4.087v7.7c0,7.843,2.5,10.447,10.15,10.447h.956V35.937c-4.037,0-4.531-.577-4.531-4.334V23.958Z" transform="translate(-992.246 -8.436)"/>
</svg>
