<svg id="Group_127" data-name="Group 127" xmlns="http://www.w3.org/2000/svg" width="139.171" height="55.107" viewBox="0 0 139.171 55.107">
  <path id="Path_179" data-name="Path 179" d="M159.425,135.771H172.6c6.195,0,12.932,1.3,12.932,8.988a7.956,7.956,0,0,1-6.09,7.788v.1a8.471,8.471,0,0,1,7.746,8.638c0,7.388-6.993,9.84-13.282,9.84H159.431Zm7.786,14.13h5.653c2.4,0,4.893-1,4.893-3.844,0-2.946-2.8-3.7-5.234-3.7h-5.295Zm0,14.63H174.2c2.445,0,5.19-1.047,5.19-4.145,0-3.35-3.743-3.894-6.281-3.894h-5.893Zm34.559-28.76h13.679c7.24,0,13.332,2.5,13.332,10.736a9.1,9.1,0,0,1-7.639,9.685l8.988,14.929h-9.34L213.4,156.99h-3.844v14.132H201.77Zm7.788,14.628h4.593c2.845,0,6.54-.1,6.54-3.944,0-3.544-3.2-4.093-6.04-4.093h-5.094Zm36.954-14.628h7.79v35.35h-7.79Zm34.205,6.892H270.63v-6.892H298.6v6.892H288.51v28.458h-7.792Z" transform="translate(-159.425 -135.771)"/>
  <rect id="Rectangle_463" data-name="Rectangle 463" width="71.316" height="7.899" transform="translate(33.577 47.208)"/>
</svg>
