<svg id="iconmonstr-instagram-11" xmlns="http://www.w3.org/2000/svg" width="46.533" height="46.533" viewBox="0 0 46.533 46.533">
  <path id="iconmonstr-instagram-11-2" data-name="iconmonstr-instagram-11" d="M23.267,4.194c6.212,0,6.949.023,9.4.136,6.305.287,9.25,3.279,9.537,9.537.112,2.453.134,3.189.134,9.4s-.023,6.949-.134,9.4c-.289,6.253-3.226,9.25-9.537,9.537-2.455.112-3.188.136-9.4.136s-6.949-.023-9.4-.136c-6.321-.289-9.25-3.294-9.537-9.539-.112-2.453-.136-3.187-.136-9.4s.025-6.947.136-9.4c.289-6.257,3.226-9.25,9.537-9.537,2.455-.111,3.189-.134,9.4-.134Zm0-4.194c-6.319,0-7.11.027-9.592.14C5.225.527.529,5.216.142,13.673.027,16.157,0,16.948,0,23.266s.027,7.112.14,9.594c.388,8.45,5.076,13.146,13.533,13.533,2.484.112,3.275.14,9.594.14s7.112-.027,9.594-.14C41.3,46.005,46.01,41.317,46.392,32.86c.114-2.482.142-3.275.142-9.594s-.027-7.11-.14-9.592C46.013,5.233,41.319.529,32.862.142,30.378.027,29.585,0,23.267,0Zm0,11.319A11.948,11.948,0,1,0,35.214,23.266,11.948,11.948,0,0,0,23.267,11.319Zm0,19.7a7.755,7.755,0,1,1,7.756-7.755A7.755,7.755,0,0,1,23.267,31.022ZM35.687,8.056a2.792,2.792,0,1,0,2.79,2.792A2.793,2.793,0,0,0,35.687,8.056Z" fill="#0a0a0a"/>
</svg>
