<svg id="iconmonstr-twitter-1" xmlns="http://www.w3.org/2000/svg" width="46.533" height="37.815" viewBox="0 0 46.533 37.815">
  <path id="iconmonstr-twitter-1-2" data-name="iconmonstr-twitter-1" d="M46.533,6.725a19.06,19.06,0,0,1-5.483,1.5,9.562,9.562,0,0,0,4.2-5.281,19.124,19.124,0,0,1-6.063,2.317,9.553,9.553,0,0,0-16.269,8.706A27.1,27.1,0,0,1,3.24,3.995,9.559,9.559,0,0,0,6.193,16.741a9.506,9.506,0,0,1-4.322-1.194,9.554,9.554,0,0,0,7.657,9.481,9.569,9.569,0,0,1-4.312.163,9.554,9.554,0,0,0,8.919,6.629A19.2,19.2,0,0,1,0,35.775a27.026,27.026,0,0,0,14.635,4.289c17.725,0,27.74-14.97,27.135-28.4a19.437,19.437,0,0,0,4.764-4.942Z" transform="translate(0 -2.248)" fill="#0a0a0a"/>
</svg>
