<svg id="iconmonstr-facebook-6" xmlns="http://www.w3.org/2000/svg" width="46.533" height="46.533" viewBox="0 0 46.533 46.533">
  <path id="iconmonstr-facebook-6-2" data-name="iconmonstr-facebook-6" d="M43.964,0H2.569A2.568,2.568,0,0,0,0,2.569v41.4a2.568,2.568,0,0,0,2.569,2.567H24.856V28.513H18.792V21.49h6.065V16.312c0-6.01,3.67-9.283,9.033-9.283a49.745,49.745,0,0,1,5.419.277v6.282l-3.719,0c-2.916,0-3.48,1.386-3.48,3.418v4.485h6.955l-.905,7.023H32.11V46.533H43.968a2.568,2.568,0,0,0,2.565-2.569V2.569A2.568,2.568,0,0,0,43.964,0Z" fill="#0a0a0a"/>
</svg>
