<svg id="iconmonstr-linkedin-3" xmlns="http://www.w3.org/2000/svg" width="46.533" height="46.533" viewBox="0 0 46.533 46.533">
  <path id="iconmonstr-linkedin-3-2" data-name="iconmonstr-linkedin-3" d="M36.839,0H9.694A9.7,9.7,0,0,0,0,9.694V36.838a9.7,9.7,0,0,0,9.694,9.694H36.839a9.694,9.694,0,0,0,9.694-9.694V9.694A9.694,9.694,0,0,0,36.839,0ZM15.511,36.838H9.694V15.511h5.817ZM12.6,13.052A3.42,3.42,0,1,1,16,9.632,3.408,3.408,0,0,1,12.6,13.052ZM38.778,36.838H32.961V25.973c0-6.53-7.756-6.036-7.756,0V36.838H19.389V15.511h5.817v3.422c2.707-5.014,13.572-5.384,13.572,4.8Z" fill="#0a0a0a"/>
</svg>
