<svg xmlns="http://www.w3.org/2000/svg" width="471.385" height="134.418" viewBox="0 0 471.385 134.418">
  <g id="logo-17" transform="translate(-27 -32)">
    <path id="Контур_94" data-name="Контур 94" d="M94.209,32a67.209,67.209,0,1,0,0,134.418v-33.6a33.6,33.6,0,0,1,0-67.209Z" transform="translate(0)" fill="#0f52ff"/>
    <circle id="Эллипс_10" data-name="Эллипс 10" cx="22.403" cy="22.403" r="22.403" transform="translate(71.806 76.806)" fill="#0f52ff"/>
    <path id="Контур_95" data-name="Контур 95" d="M27,49.5a67.209,67.209,0,1,0,134.418,0h-33.6a33.6,33.6,0,0,1-67.209,0Z" transform="translate(0 49.709)" fill="#5badf4"/>
    <path id="Контур_96" data-name="Контур 96" d="M83.473,66.07a22.4,22.4,0,0,0-44.806,0H83.473Z" transform="translate(33.139 33.139)" fill="#5badf4"/>
    <path id="Контур_97" data-name="Контур 97" d="M77.313,42.925H68.966V89.3h8.347Z" transform="translate(119.205 31.033)" fill="#0f52ff"/>
    <path id="Контур_98" data-name="Контур 98" d="M72.559,63.56c0,10.732,7.42,17.357,17.225,17.357s17.225-6.625,17.225-17.357S99.588,46.2,89.784,46.2,72.559,52.827,72.559,63.56Zm8.347,0c0-6.36,3.71-10.07,8.877-10.07s8.877,3.71,8.877,10.07-3.71,10.07-8.877,10.07S80.906,69.92,80.906,63.56Z" transform="translate(129.411 40.342)" fill="#0f52ff"/>
    <path id="Контур_99" data-name="Контур 99" d="M108.8,47.13v4.438h-.662C106.148,48.72,102.968,46.2,97.27,46.2c-7.817,0-14.84,6.625-14.84,16.827s7.022,16.827,14.84,16.827c5.7,0,8.877-2.584,10.732-5.167h.662v3.18c0,6.36-3.71,9.275-9.142,9.275s-8.215-2.915-9.341-6.691L82.7,83.7c1.722,4.968,6.757,10.467,16.96,10.467,10.467,0,17.357-5.5,17.357-16.1V47.13ZM99.788,72.7c-5.167,0-9.01-3.71-9.01-9.672s3.842-9.672,9.01-9.672,9.01,3.71,9.01,9.672S104.955,72.7,99.788,72.7Z" transform="translate(157.451 40.342)" fill="#0f52ff"/>
    <path id="Контур_100" data-name="Контур 100" d="M92.841,63.56c0,10.732,7.42,17.357,17.225,17.357S127.29,74.292,127.29,63.56,119.871,46.2,110.066,46.2,92.841,52.827,92.841,63.56Zm8.347,0c0-6.36,3.71-10.07,8.877-10.07s8.877,3.71,8.877,10.07-3.71,10.07-8.877,10.07S101.188,69.92,101.188,63.56Z" transform="translate(187.023 40.342)" fill="#0f52ff"/>
    <path id="Контур_101" data-name="Контур 101" d="M103.517,48.174a5.9,5.9,0,1,0,5.9-5.7A5.624,5.624,0,0,0,103.517,48.174Zm10.07,9.54h-8.345V90.573h8.345Z" transform="translate(217.348 29.759)" fill="#5badf4"/>
    <path id="Контур_102" data-name="Контур 102" d="M108.076,93.239h8.349V75.749h.661c1.855,2.65,5.035,5.167,10.734,5.167,7.815,0,14.84-6.625,14.84-17.357S135.636,46.2,127.82,46.2c-5.7,0-8.879,2.517-10.865,5.366h-.664V47.13h-8.215ZM125.3,73.762c-5.165,0-9.01-3.71-9.01-10.2s3.844-10.2,9.01-10.2,9.01,3.71,9.01,10.2S130.47,73.762,125.3,73.762Z" transform="translate(230.298 40.342)" fill="#5badf4"/>
    <path id="Контур_103" data-name="Контур 103" d="M119.232,56.339c0,6.492,5.431,8.877,12.32,10.2l1.724.331c4.105.795,5.96,1.789,5.96,3.909s-1.855,3.776-5.7,3.776-6.955-1.59-7.819-6.36l-7.685,1.987c1.129,6.89,6.89,10.732,15.5,10.732,8.345,0,13.78-3.908,13.78-10.8s-5.565-8.745-12.985-10.2l-1.724-.331c-3.445-.662-5.3-1.59-5.3-3.776,0-1.987,1.724-3.246,4.9-3.246s5.43,1.325,6.225,4.9L146,55.146c-1.59-5.3-6.425-8.944-13.78-8.944C124.4,46.2,119.232,49.846,119.232,56.339Z" transform="translate(258.595 40.342)" fill="#5badf4"/>
    <path id="Контур_104" data-name="Контур 104" d="M158.945,79.3V46.444H150.6V63.4c0,6.095-2.98,9.672-8.084,9.672-4.5,0-7.02-2.451-7.02-7.42V46.444h-8.349v19.61c0,8.149,5.1,13.78,12.789,13.78,6.026,0,8.81-2.65,10.135-5.432h.661v4.9Z" transform="translate(284.466 41.028)" fill="#5badf4"/>
    <path id="Контур_105" data-name="Контур 105" d="M137.354,46.836V79.7H145.7V60.086c0-4.5,2.12-7.022,5.96-7.022,3.314,0,5.3,1.855,5.3,5.432V79.7h8.349V60.086c0-4.5,2.12-7.022,5.96-7.022,3.314,0,5.3,1.855,5.3,5.432V79.7h8.349V58.1c0-7.95-4.9-11.792-11-11.792-5.365,0-7.815,2.385-9.405,5.167h-.664c-1.525-3.113-4.24-5.167-9.01-5.167s-7.355,2.12-8.61,4.637h-.664V46.836Z" transform="translate(313.462 40.636)" fill="#5badf4"/>
  </g>
</svg>
