<svg xmlns="http://www.w3.org/2000/svg" width="183.478" height="37.29" viewBox="0 0 183.478 37.29"><g transform="translate(-763.189 -565.909)"><path d="M876.987,587.046a11.309,11.309,0,0,0-9.666-5.529,11.473,11.473,0,0,0-11.531,11.422c0,11.5,15.093,15.581,21.153,5.871l-4.29-2.841a6.1,6.1,0,0,1-11.436-3.052c0-6.49,8.428-8.515,11.305-3.263Z" transform="translate(-49.437 -8.333)" fill="#0a0a0a" fill-rule="evenodd"/><path d="M915.718,604.273a11.341,11.341,0,0,0,11.539-11.334,11.535,11.535,0,0,0-23.07,0,11.294,11.294,0,0,0,11.531,11.334Zm-6.1-11.356a6.1,6.1,0,1,1,12.2,0,6.1,6.1,0,1,1-12.2,0Z" transform="translate(-75.275 -8.333)" fill="#0a0a0a" fill-rule="evenodd"/><rect width="5.441" height="28.256" transform="translate(855.398 567.233)" fill="#0a0a0a"/><path d="M978.011,580.274h4.524v16.732h5.441V580.274h4.611v-5.121h-4.611v-6.4h-5.441v6.4h-4.524Z" transform="translate(-114.688 -1.517)" fill="#0a0a0a" fill-rule="evenodd"/><path d="M1016.132,590.829c1.274-5.616,9.754-5.638,11.181,0Zm14.852,9.535-3.671-3.241c-3.183,3.5-9.907,3.161-11.2-1.748h16.769a18.187,18.187,0,0,0,.2-2.433,11.334,11.334,0,1,0-22.669,0C1010.406,603.846,1023.875,608.049,1030.984,600.364Z" transform="translate(-131.983 -8.357)" fill="#0a0a0a" fill-rule="evenodd"/><path d="M1085.252,587.046a11.308,11.308,0,0,0-9.666-5.529,11.473,11.473,0,0,0-11.531,11.422c0,11.5,15.093,15.581,21.154,5.871l-4.29-2.841a6.1,6.1,0,0,1-11.436-3.052c0-6.49,8.428-8.515,11.305-3.263Z" transform="translate(-160.624 -8.333)" fill="#0a0a0a" fill-rule="evenodd"/><path d="M1115.414,568.75v28.256h5.441V584.841c0-2.688,1.26-4.99,4.211-4.99s4.2,2.28,4.2,4.99v12.165h5.442V584.8c0-4.866-1.989-9.987-7.619-9.987a6.44,6.44,0,0,0-6.236,3.882V568.75Z" transform="translate(-188.044 -1.517)" fill="#0a0a0a" fill-rule="evenodd"/><path d="M802.461,612.186v11.449l9.915-5.725-9.915-5.724Zm-1.607-2.783,14.737,8.507-14.737,8.509Z" transform="translate(-20.108 -23.22)" fill="#0a0a0a" fill-rule="evenodd"/><path d="M778.865,614.81l-15.676-9.052v-18.1l15.676,9.049v18.1Zm-1.607-2.784V597.633L764.8,590.44v14.39Z" transform="translate(0 -11.611)" fill="#0a0a0a" fill-rule="evenodd"/><path d="M802.461,580.143l9.915-5.725-9.915-5.725v11.45Zm-1.607,2.783V565.909l14.737,8.509Z" transform="translate(-20.108 0)" fill="#0a0a0a" fill-rule="evenodd"/><path d="M779.94,582.926V565.909L765.2,574.416l14.737,8.51Zm-1.607-2.784-9.916-5.725,9.916-5.724Z" transform="translate(-1.075 0)" fill="#046afa" fill-rule="evenodd"/></g></svg>